<?xml version="1.0" encoding="UTF-8"?>
<svg version="1.1" xmlns="http://www.w3.org/2000/svg" width="3241" height="1912">
<path d="M0 0 C1.58567279 1.08359871 3.1399667 2.21419094 4.6640625 3.3828125 C6.50223168 4.50312472 8.34912046 5.60921798 10.203125 6.703125 C12.23385546 7.96801351 14.26238725 9.23643665 16.2890625 10.5078125 C18.59503354 11.94099702 20.90186701 13.37261248 23.2109375 14.80078125 C24.11191666 15.35817741 24.11191666 15.35817741 25.03109741 15.92683411 C32.14616563 20.31580748 39.34231817 24.56712954 46.5390625 28.8203125 C56.697641 34.82842338 66.83123274 40.87332309 76.9140625 47.0078125 C77.48562073 47.35546661 78.05717896 47.70312073 78.64605713 48.06130981 C83.22330879 50.84618824 87.79800807 53.6352483 92.37255859 56.42456055 C96.38517397 58.87098372 100.39891559 61.31554624 104.4140625 63.7578125 C105.26769882 64.27719391 105.26769882 64.27719391 106.13858032 64.80706787 C116.43811283 71.06968078 126.80113013 77.2224602 137.17565918 83.35980225 C146.04076794 88.60645097 154.84574189 93.93170749 163.58032227 99.39379883 C171.49564866 104.32279349 179.51448021 109.07228311 187.5390625 113.8203125 C199.65847163 120.99222571 211.72272862 128.24585496 223.73681641 135.59326172 C229.18767906 138.92560728 234.64295653 142.25067061 240.1015625 145.5703125 C240.67951569 145.92188416 241.25746887 146.27345581 241.85293579 146.63568115 C252.24756655 152.9546111 262.70461413 159.16541032 273.17428589 165.35897827 C282.03985188 170.60590297 290.84528916 175.93142438 299.58032227 181.39379883 C307.49564866 186.32279349 315.51448021 191.07228311 323.5390625 195.8203125 C335.65847163 202.99222571 347.72272862 210.24585496 359.73681641 217.59326172 C365.18767906 220.92560728 370.64295653 224.25067061 376.1015625 227.5703125 C376.67951569 227.92188416 377.25746887 228.27345581 377.85293579 228.63568115 C388.24756655 234.9546111 398.70461413 241.16541032 409.17428589 247.35897827 C418.03985188 252.60590297 426.84528916 257.93142438 435.58032227 263.39379883 C443.49564866 268.32279349 451.51448021 273.07228311 459.5390625 277.8203125 C471.65847163 284.99222571 483.72272862 292.24585496 495.73681641 299.59326172 C501.18767913 302.92560732 506.64297196 306.25064516 512.1015625 309.5703125 C512.96599976 310.09617447 512.96599976 310.09617447 513.84790039 310.63265991 C524.35596199 317.02082634 534.92760587 323.29912709 545.51119995 329.56112671 C553.18976172 334.10598774 560.83988214 338.67924397 568.36987305 343.4675293 C575.56327873 348.00763751 582.90670608 352.30106013 590.2265625 356.6328125 C602.44995177 363.86752883 614.61910999 371.18248534 626.73681641 378.59326172 C632.18767906 381.92560728 637.64295653 385.25067061 643.1015625 388.5703125 C643.67951569 388.92188416 644.25746887 389.27345581 644.85293579 389.63568115 C655.24756655 395.9546111 665.70461413 402.16541032 676.17428589 408.35897827 C685.03985188 413.60590297 693.84528916 418.93142438 702.58032227 424.39379883 C710.49564866 429.32279349 718.51448021 434.07228311 726.5390625 438.8203125 C738.65847163 445.99222571 750.72272862 453.24585496 762.73681641 460.59326172 C766.96385193 463.17742939 771.19195774 465.75967877 775.42981613 468.3260675 C777.76399772 469.74462089 780.07294906 471.1889794 782.37741292 472.65667061 C788.0512159 476.2414625 793.60780156 479.4864519 799.85955075 481.96432457 C821.8455456 490.68455363 821.8455456 490.68455363 826.70479041 500.48095508 C831.12441482 513.0729487 829.90342757 527.52192326 829.57658067 540.64138392 C829.46603565 546.51256852 829.54266547 552.38190218 829.59506035 558.25348312 C829.66125525 568.53366802 829.61019537 578.80836781 829.4786377 589.08781242 C829.33821417 600.10875408 829.26834931 611.12684566 829.2835083 622.14870834 C829.28442645 622.84641588 829.2853446 623.54412341 829.28629057 624.26297359 C829.291295 627.82098875 829.29743733 631.37900102 829.30398133 634.93701364 C829.34894882 660.64932075 829.23949565 686.35909378 829.04742432 712.0706234 C828.85773892 737.52371466 828.7345894 762.97572044 828.70013428 788.42951393 C828.6990331 789.22073838 828.69793192 790.01196283 828.69679737 790.82716378 C828.68677462 798.05405301 828.67756857 805.28094307 828.66934218 812.50783457 C828.64888463 830.47102201 828.61818825 848.43418415 828.58053589 866.39734364 C828.57797665 867.624186 828.57797665 867.624186 828.57536571 868.87581307 C828.49152832 908.63709957 828.28970813 948.39766991 828.078125 988.15844727 C828.00479018 1001.95189879 827.93197778 1015.74535278 827.86132812 1029.53881836 C827.85694575 1030.39432001 827.85256338 1031.24982166 827.8480482 1032.1312476 C827.64496308 1071.91618041 827.52613994 1111.70123363 827.42827788 1151.48654774 C827.4218597 1154.09043766 827.41538613 1156.69432743 827.4088943 1159.29821717 C827.34126293 1186.43544734 827.27767706 1213.57268671 827.21584558 1240.70993067 C827.21407873 1241.48525888 827.21231188 1242.26058709 827.21049149 1243.05941009 C827.20573987 1245.14615872 827.20099747 1247.23290737 827.19625592 1249.31965602 C826.89592846 1380.00873298 826.25366348 1510.69406918 825.6640625 1641.3828125 C482.4640625 1641.3828125 139.2640625 1641.3828125 -214.3359375 1641.3828125 C-214.3359375 1446.34570384 -214.3359375 1446.34570384 -214.09696758 1380.97542095 C-214.06358167 1371.74629045 -214.03372408 1362.51714791 -214.00332454 1353.28800719 C-213.93783109 1333.43694996 -213.86923634 1313.58590457 -213.79901205 1293.73486357 C-213.73770103 1276.40190507 -213.67752026 1259.06894305 -213.61833 1241.73597717 C-213.61230913 1239.97365385 -213.61230913 1239.97365385 -213.60616662 1238.17572804 C-213.589853 1233.40067437 -213.57354252 1228.62562069 -213.55723781 1223.85056699 C-213.40626232 1179.64279293 -213.25190501 1135.43503128 -213.09593762 1091.22727457 C-212.95858404 1052.28889637 -212.82452551 1013.35050808 -212.69311523 974.41210938 C-212.54372115 930.14761337 -212.39209585 885.88312586 -212.23712486 841.61864901 C-212.22053189 836.87740359 -212.20394483 832.13615816 -212.18736076 827.39491272 C-212.18327874 826.228403 -212.17919671 825.06189328 -212.17499098 823.86003477 C-212.11833145 807.65812412 -212.06299279 791.45620946 -212.00867887 775.25429079 C-211.98602872 768.50988499 -211.96316708 761.76547991 -211.94028481 755.02107489 C-211.92162468 749.51807377 -211.90308206 744.01507231 -211.88481245 738.51206988 C-211.81236212 716.73053268 -211.73394568 694.9490897 -211.61947558 673.16772772 C-211.57934563 665.52910487 -211.54038856 657.89047587 -211.50136108 650.25184732 C-211.48719258 647.49800181 -211.47270183 644.74415811 -211.45820656 641.9903143 C-211.34568205 620.30644798 -211.34721885 598.62898774 -211.53031049 576.9456169 C-211.58325886 569.87371689 -211.60254491 562.80166007 -211.61770729 555.72958818 C-211.63478964 549.65327328 -211.70899663 543.58189247 -211.83621272 537.50693059 C-211.89619929 533.99873518 -211.90036872 530.49228961 -211.88667734 526.98368013 C-211.8923407 525.42996128 -211.92174455 523.87609085 -211.97841112 522.32339537 C-212.14119081 517.73178276 -212.08268808 513.71491468 -210.3359375 509.3828125 C-206.42917343 505.49846256 -201.33681954 503.48754652 -196.3359375 501.3828125 C-194.93314276 500.64241394 -193.53784002 499.88719592 -192.15820312 499.10449219 C-191.03091797 498.51055664 -189.90363281 497.91662109 -188.7421875 497.3046875 C-188.11187622 496.97148499 -187.48156494 496.63828247 -186.83215332 496.29498291 C-185.51018198 495.59626613 -184.18771301 494.89849006 -182.86474609 494.20166016 C-179.34182082 492.34565933 -175.82317245 490.48158892 -172.3046875 488.6171875 C-171.61020508 488.24928101 -170.91572266 487.88137451 -170.20019531 487.50231934 C-164.55404014 484.50725884 -158.93792736 481.45970381 -153.3359375 478.3828125 C-144.46067427 473.51207616 -135.53079681 468.74902366 -126.5859375 464.0078125 C-115.67804045 458.22594176 -104.788014 452.41322426 -93.92285156 446.55126953 C-86.06835462 442.31381569 -78.20443467 438.09419327 -70.3359375 433.8828125 C-60.27265458 428.49615134 -50.21819701 423.09338195 -40.17114258 417.67651367 C-34.3393303 414.53369832 -28.50287317 411.39982459 -22.66015625 408.27734375 C-22.02046906 407.93532928 -21.38078186 407.59331482 -20.72171021 407.24093628 C-17.61803488 405.58159379 -14.51371434 403.92348214 -11.40820312 402.26757812 C-10.29509766 401.67267578 -9.18199219 401.07777344 -8.03515625 400.46484375 C-7.05377686 399.94124268 -6.07239746 399.4176416 -5.0612793 398.87817383 C-2.30656554 397.42030881 -2.30656554 397.42030881 0.27026367 395.62768555 C2.6640625 394.3828125 2.6640625 394.3828125 4.74291992 394.55810547 C6.76516036 395.42621173 8.54761873 396.39203275 10.40234375 397.578125 C11.12824707 398.03904541 11.85415039 398.49996582 12.60205078 398.97485352 C13.38563965 399.48072998 14.16922852 399.98660645 14.9765625 400.5078125 C16.21768799 401.30046509 16.21768799 401.30046509 17.48388672 402.10913086 C26.07811422 407.61278797 34.62022128 413.19777463 43.16015625 418.78515625 C47.88136421 421.87381976 52.61252374 424.94659464 57.3515625 428.0078125 C63.46230447 431.95607729 69.56530236 435.91606371 75.6640625 439.8828125 C83.96404211 445.28065693 92.27291222 450.66457886 100.58740234 456.04003906 C104.82449012 458.77975018 109.06031096 461.52141982 113.29638672 464.26269531 C116.80005532 466.52991677 120.30399483 468.7967168 123.80859375 471.0625 C132.28531977 476.54369126 140.7529829 482.03863097 149.21533203 487.54199219 C156.6653644 492.38602249 164.12482952 497.21535798 171.58740234 502.04003906 C175.82449012 504.77975018 180.06031096 507.52141982 184.29638672 510.26269531 C187.80005532 512.52991677 191.30399483 514.7967168 194.80859375 517.0625 C203.28531977 522.54369126 211.7529829 528.03863097 220.21533203 533.54199219 C227.6653644 538.38602249 235.12482952 543.21535798 242.58740234 548.04003906 C246.82449012 550.77975018 251.06031096 553.52141982 255.29638672 556.26269531 C258.80005532 558.52991677 262.30399483 560.7967168 265.80859375 563.0625 C274.28531977 568.54369126 282.7529829 574.03863097 291.21533203 579.54199219 C298.6653644 584.38602249 306.12482952 589.21535798 313.58740234 594.04003906 C317.11354566 596.32005179 320.63875059 598.60151456 324.1640625 600.8828125 C325.5807248 601.79948591 326.99739147 602.71615258 328.4140625 603.6328125 C331.24739583 605.46614583 334.08072917 607.29947917 336.9140625 609.1328125 C337.6150708 609.58640137 338.3160791 610.03999023 339.03833008 610.50732422 C340.45745561 611.4255915 341.87656364 612.34388585 343.2956543 613.26220703 C346.79955847 615.52960451 350.30374845 617.79655751 353.80859375 620.0625 C362.28531977 625.54369126 370.7529829 631.03863097 379.21533203 636.54199219 C386.6653644 641.38602249 394.12482952 646.21535798 401.58740234 651.04003906 C405.82449012 653.77975018 410.06031096 656.52141982 414.29638672 659.26269531 C417.80005532 661.52991677 421.30399483 663.7967168 424.80859375 666.0625 C433.28531977 671.54369126 441.7529829 677.03863097 450.21533203 682.54199219 C457.6653644 687.38602249 465.12482952 692.21535798 472.58740234 697.04003906 C476.82449012 699.77975018 481.06031096 702.52141982 485.29638672 705.26269531 C488.80005532 707.52991677 492.30399483 709.7967168 495.80859375 712.0625 C503.43344529 716.99285513 511.05207611 721.9326148 518.6640625 726.8828125 C525.14131728 731.09409282 531.61877137 735.30505814 538.1015625 739.5078125 C538.79314453 739.95705078 539.48472656 740.40628906 540.19726562 740.86914062 C540.84501953 741.28873047 541.49277344 741.70832031 542.16015625 742.140625 C542.71888428 742.5030127 543.2776123 742.86540039 543.85327148 743.23876953 C545.72065798 744.49949333 545.72065798 744.49949333 548.2396574 745.38366413 C550.6640625 747.3828125 550.6640625 747.3828125 551.1240803 749.17403352 C551.29871018 751.63284308 551.30566777 754.04835505 551.26533508 756.51322937 C551.26960721 757.45909324 551.27387933 758.40495711 551.27828091 759.37948352 C551.2865458 762.562953 551.2589676 765.74511783 551.23168945 768.9284668 C551.23027974 771.20474211 551.23106945 773.48101971 551.23390198 775.7572937 C551.23534053 781.94926514 551.20587925 788.14075537 551.17103219 794.33261466 C551.13984198 800.79885168 551.13684374 807.2650989 551.13090515 813.73139954 C551.11711462 824.58868768 551.08585295 835.44577784 551.04125977 846.30297852 C550.99537377 857.48656325 550.95997722 868.67009992 550.9387207 879.85375977 C550.93740709 880.54296757 550.93609347 881.23217538 550.93474004 881.94226827 C550.92821492 885.39977653 550.92189636 888.85728512 550.91568053 892.31479394 C550.86383589 921.00425315 550.77538919 949.69352591 550.6640625 978.3828125 C548.92134449 977.44015141 547.17958882 976.4957111 545.43823242 975.55053711 C543.98316536 974.76192543 543.98316536 974.76192543 542.498703 973.9573822 C538.55829974 971.7685898 534.76591674 969.38341102 530.9765625 966.9453125 C529.32069295 965.89002779 527.66442346 964.83537045 526.0078125 963.78125 C525.1415625 963.22920898 524.2753125 962.67716797 523.3828125 962.10839844 C518.59648891 959.07052711 513.78592205 956.07153071 508.9765625 953.0703125 C507.96827393 952.44068604 506.95998535 951.81105957 505.92114258 951.16235352 C503.86239948 949.87680131 501.80356116 948.59140158 499.74462891 947.30615234 C493.72032851 943.54490345 487.69852368 939.77966068 481.67626953 936.01513672 C476.61444847 932.85118885 471.55199102 929.68826812 466.48828125 926.52734375 C456.60126972 920.35423503 446.72421359 914.16655494 436.87451172 907.93408203 C427.52149524 902.0203971 418.1315712 896.16577226 408.74462891 890.30615234 C403.71659763 887.16692027 398.69040909 884.02474099 393.6640625 880.8828125 C391.66407165 879.63279786 389.66407164 878.38279788 387.6640625 877.1328125 C311.6640625 829.6328125 235.6640625 782.1328125 159.6640625 734.6328125 C158.67365967 734.0138208 157.68325684 733.3948291 156.6628418 732.75708008 C154.66687422 731.50958003 152.67094311 730.26202162 150.67504883 729.0144043 C145.61365334 725.85067068 140.55158856 722.68801689 135.48828125 719.52734375 C125.60126972 713.35423503 115.72421359 707.16655494 105.87451172 700.93408203 C96.52149524 695.0203971 87.1315712 689.16577226 77.74462891 683.30615234 C72.71659763 680.16692027 67.69040909 677.02474099 62.6640625 673.8828125 C60.66407165 672.63279786 58.66407164 671.38279788 56.6640625 670.1328125 C38.6640625 658.8828125 20.6640625 647.6328125 2.6640625 636.3828125 C2.66498429 637.45707607 2.66590609 638.53133964 2.66685581 639.63815665 C2.73600759 721.28984467 2.78183341 802.94183599 2.2265625 1040.7734375 C2.2210338 1042.26985605 2.21550535 1043.76627461 2.20997715 1045.26269317 C2.07729817 1081.14359071 1.93641891 1117.02445435 1.79144645 1152.90530413 C1.69806308 1176.01791502 1.60723507 1199.13053465 1.51855469 1222.24316406 C1.51556658 1223.02173367 1.51257846 1223.80030329 1.5094998 1224.60246592 C1.47945423 1232.43161419 1.44945131 1240.26076263 1.4194794 1248.08991118 C1.35859366 1263.99400342 1.29742604 1279.89809457 1.23608398 1295.80218506 C1.23327301 1296.53107564 1.23046203 1297.25996623 1.22756587 1298.01094441 C1.04451412 1345.46825266 0.8549062 1392.925535 0.6640625 1440.3828125 C1.28152719 1440.39026613 1.89899189 1440.39771976 2.53516763 1440.40539926 C46.72620381 1440.94324203 90.91410327 1441.65371866 135.10180664 1442.41430664 C135.802216 1442.4263602 136.50262536 1442.43841375 137.22425925 1442.45083257 C155.13086777 1442.75905651 173.03743541 1443.06962649 190.94398795 1443.38108417 C202.83047592 1443.58783183 214.71697457 1443.79395346 226.6034832 1443.99950981 C227.40115999 1444.01330454 228.19883678 1444.02709927 229.0206856 1444.04131202 C233.07431749 1444.11141121 237.12794955 1444.18150071 241.18158167 1444.25158649 C269.63661627 1444.74358063 298.09162995 1445.23677441 326.54663086 1445.73071289 C354.13060442 1446.20952872 381.71458773 1446.68777674 409.29858398 1447.1652832 C410.58176943 1447.18749675 410.58176943 1447.18749675 411.89087781 1447.21015906 C420.48443395 1447.35892368 429.07799028 1447.50767706 437.67154675 1447.6564222 C455.16599628 1447.9592324 472.66044452 1448.26211753 490.15489197 1448.56504822 C490.95864789 1448.57896582 491.76240381 1448.59288342 492.59051597 1448.60722276 C545.94838664 1449.5311604 599.30622697 1450.45684816 652.6640625 1451.3828125 C652.63459809 1450.4700083 652.60513368 1449.5572041 652.57477641 1448.61673917 C651.89022817 1426.98280396 651.51041724 1405.37295363 651.5068571 1383.72864799 C651.5050805 1379.71795721 651.49757114 1375.7072757 651.49088055 1371.69659066 C651.47997253 1364.71059285 651.47251145 1357.72459847 651.46748161 1350.73859406 C651.45998627 1340.35110488 651.44688444 1329.96362771 651.43273586 1319.57614573 C651.40907482 1302.09200407 651.38980879 1284.60786025 651.37313652 1267.12371063 C651.35663837 1249.83755955 651.33813222 1232.55141249 651.31700325 1215.26526642 C651.31568564 1214.18639056 651.31436804 1213.1075147 651.3130105 1211.99594563 C651.30630748 1206.51583307 651.29956915 1201.03572056 651.29281724 1195.55560806 C651.24518261 1156.84208898 651.20196116 1118.12856612 651.16137695 1079.41503906 C651.12196461 1041.82909877 651.0805272 1004.2431616 651.03637695 966.65722656 C651.03433316 964.91628356 651.03433316 964.91628356 651.03224808 963.14016999 C651.01856151 951.48358432 651.00483408 939.82699869 650.99107673 928.1704131 C650.96305781 904.4292218 650.93531142 880.68803019 650.9077301 856.94683838 C650.9064619 855.85549946 650.9051937 854.76416054 650.90388708 853.63975074 C650.8193759 780.88744307 650.74121579 708.1351283 650.6640625 635.3828125 C649.8830014 635.07752625 649.10194031 634.77223999 648.29721069 634.45770264 C645.79467561 633.43613071 643.67409983 632.27292941 641.390625 630.8359375 C640.57787109 630.32804688 639.76511719 629.82015625 638.92773438 629.296875 C638.05697266 628.74773438 637.18621094 628.19859375 636.2890625 627.6328125 C634.39634663 626.44969928 632.50309867 625.26743694 630.609375 624.0859375 C629.63000977 623.47427734 628.65064453 622.86261719 627.64160156 622.23242188 C622.83686081 619.24777806 618.00045932 616.31577897 613.1640625 613.3828125 C605.01078235 608.43146095 596.88401284 603.43981068 588.77807617 598.41137695 C578.53827593 592.06001189 568.27206783 585.75167903 558.0078125 579.43994141 C554.68396725 577.39505822 551.36132554 575.34823384 548.0390625 573.30078125 C537.65943141 566.90537548 527.27131266 560.52518275 516.8515625 554.1953125 C508.80490495 549.30665581 500.78475031 544.3775356 492.78344727 539.41503906 C477.51229014 529.94415622 462.20920776 520.52533336 446.8515625 511.1953125 C438.8026626 506.30526761 430.77997594 501.37522011 422.77685547 496.41064453 C412.53750184 490.05945984 402.27166344 483.75143035 392.0078125 477.43994141 C388.68396725 475.39505822 385.36132554 473.34823384 382.0390625 471.30078125 C371.65943141 464.90537548 361.27131266 458.52518275 350.8515625 452.1953125 C342.80490495 447.30665581 334.78475031 442.3775356 326.78344727 437.41503906 C311.51229014 427.94415622 296.20920776 418.52533336 280.8515625 409.1953125 C272.8026626 404.30526761 264.77997594 399.37522011 256.77685547 394.41064453 C246.53750184 388.05945984 236.27166344 381.75143035 226.0078125 375.43994141 C222.68396725 373.39505822 219.36132554 371.34823384 216.0390625 369.30078125 C205.65943141 362.90537548 195.27131266 356.52518275 184.8515625 350.1953125 C176.80490495 345.30665581 168.78475031 340.3775356 160.78344727 335.41503906 C145.51229014 325.94415622 130.20920776 316.52533336 114.8515625 307.1953125 C106.8026626 302.30526761 98.77997594 297.37522011 90.77685547 292.41064453 C80.53750184 286.05945984 70.27166344 279.75143035 60.0078125 273.43994141 C56.68396725 271.39505822 53.36132554 269.34823384 50.0390625 267.30078125 C38.45352271 260.16236383 26.85574104 253.04537604 15.22192383 245.98583984 C14.34431396 245.45297363 13.4667041 244.92010742 12.5625 244.37109375 C11.31484863 243.62013428 11.31484863 243.62013428 10.04199219 242.85400391 C8.47840755 241.88663624 6.93592685 240.88413935 5.41894531 239.84521484 C4.72897461 239.37680176 4.03900391 238.90838867 3.328125 238.42578125 C2.73725098 238.00707764 2.14637695 237.58837402 1.53759766 237.15698242 C-2.34778602 235.55148964 -6.55309109 237.75045784 -10.24169922 239.26196289 C-11.19805771 239.65131516 -12.1544162 240.04066742 -13.13975525 240.44181824 C-14.68706078 241.07970024 -14.68706078 241.07970024 -16.265625 241.73046875 C-17.35118179 242.17389114 -18.43673859 242.61731354 -19.55519104 243.07417297 C-23.10885864 244.52697916 -26.65989994 245.98609098 -30.2109375 247.4453125 C-32.67700927 248.45497224 -35.1432187 249.46428867 -37.60961914 250.47314453 C-43.73881183 252.98118701 -49.86566001 255.49490261 -55.99188232 258.01019287 C-60.73188976 259.95580289 -65.47336255 261.89782889 -70.21484375 263.83984375 C-78.05332814 267.05137998 -85.88937147 270.268834 -93.72460938 273.48828125 C-101.65649745 276.74736078 -109.58994105 280.00265061 -117.5234375 283.2578125 C-118.71995438 283.74879425 -118.71995438 283.74879425 -119.94064331 284.24969482 C-133.99989641 290.01849276 -148.06476202 295.77352176 -162.13079834 301.52575684 C-175.13966308 306.84584504 -188.14593961 312.17218177 -201.1484375 317.5078125 C-202.34419907 317.99849213 -202.34419907 317.99849213 -203.56411743 318.49908447 C-209.15485785 320.79333469 -214.74541973 323.08801981 -220.3359375 325.3828125 C-226.73164505 328.00811905 -233.12743699 330.63321975 -239.5234375 333.2578125 C-240.32020905 333.58477112 -241.11698059 333.91172974 -241.93789673 334.24859619 C-255.99806842 340.01775276 -270.06384941 345.77314856 -284.13079834 351.52575684 C-297.13966308 356.84584504 -310.14593961 362.17218177 -323.1484375 367.5078125 C-324.34419907 367.99849213 -324.34419907 367.99849213 -325.56411743 368.49908447 C-331.15485785 370.79333469 -336.74541973 373.08801981 -342.3359375 375.3828125 C-348.73164505 378.00811905 -355.12743699 380.63321975 -361.5234375 383.2578125 C-362.32020905 383.58477112 -363.11698059 383.91172974 -363.93789673 384.24859619 C-377.99806842 390.01775276 -392.06384941 395.77314856 -406.13079834 401.52575684 C-423.9398213 408.80891143 -441.74186886 416.10897613 -459.54150391 423.41503906 C-468.45377178 427.07306794 -477.36689223 430.7290192 -486.27984619 434.38537598 C-488.72172549 435.38711318 -491.16359932 436.38886373 -493.60546875 437.390625 C-494.41085083 437.72102783 -495.21623291 438.05143066 -496.04602051 438.3918457 C-500.87089431 440.3712935 -505.69558027 442.35119832 -510.52011108 444.33148193 C-529.38542951 452.07494154 -548.25544961 459.80677755 -567.13079834 467.52575684 C-580.13966308 472.84584504 -593.14593961 478.17218177 -606.1484375 483.5078125 C-606.94561188 483.83493225 -607.74278625 484.162052 -608.56411743 484.49908447 C-614.15485785 486.79333469 -619.74541973 489.08801981 -625.3359375 491.3828125 C-631.73164505 494.00811905 -638.12743699 496.63321975 -644.5234375 499.2578125 C-645.32020905 499.58477112 -646.11698059 499.91172974 -646.93789673 500.24859619 C-660.99806842 506.01775276 -675.06384941 511.77314856 -689.13079834 517.52575684 C-702.13966308 522.84584504 -715.14593961 528.17218177 -728.1484375 533.5078125 C-728.94561188 533.83493225 -729.74278625 534.162052 -730.56411743 534.49908447 C-736.15485785 536.79333469 -741.74541973 539.08801981 -747.3359375 541.3828125 C-753.73164505 544.00811905 -760.12743699 546.63321975 -766.5234375 549.2578125 C-767.32020905 549.58477112 -768.11698059 549.91172974 -768.93789673 550.24859619 C-782.99806842 556.01775276 -797.06384941 561.77314856 -811.13079834 567.52575684 C-824.13966308 572.84584504 -837.14593961 578.17218177 -850.1484375 583.5078125 C-850.94561188 583.83493225 -851.74278625 584.162052 -852.56411743 584.49908447 C-858.15485785 586.79333469 -863.74541973 589.08801981 -869.3359375 591.3828125 C-875.73164505 594.00811905 -882.12743699 596.63321975 -888.5234375 599.2578125 C-889.32020905 599.58477112 -890.11698059 599.91172974 -890.93789673 600.24859619 C-904.99806842 606.01775276 -919.06384941 611.77314856 -933.13079834 617.52575684 C-946.13966308 622.84584504 -959.14593961 628.17218177 -972.1484375 633.5078125 C-972.94561188 633.83493225 -973.74278625 634.162052 -974.56411743 634.49908447 C-980.15485785 636.79333469 -985.74541973 639.08801981 -991.3359375 641.3828125 C-997.73164505 644.00811905 -1004.12743699 646.63321975 -1010.5234375 649.2578125 C-1011.32020905 649.58477112 -1012.11698059 649.91172974 -1012.93789673 650.24859619 C-1026.99806842 656.01775276 -1041.06384941 661.77314856 -1055.13079834 667.52575684 C-1072.9398213 674.80891143 -1090.74186886 682.10897613 -1108.54150391 689.41503906 C-1117.45377178 693.07306794 -1126.36689223 696.7290192 -1135.27984619 700.38537598 C-1137.72172549 701.38711318 -1140.16359932 702.38886373 -1142.60546875 703.390625 C-1143.41085083 703.72102783 -1144.21623291 704.05143066 -1145.04602051 704.3918457 C-1149.87089431 706.3712935 -1154.69558027 708.35119832 -1159.52011108 710.33148193 C-1178.38542951 718.07494154 -1197.25544961 725.80677755 -1216.13079834 733.52575684 C-1229.13966308 738.84584504 -1242.14593961 744.17218177 -1255.1484375 749.5078125 C-1255.94561188 749.83493225 -1256.74278625 750.162052 -1257.56411743 750.49908447 C-1263.15485785 752.79333469 -1268.74541973 755.08801981 -1274.3359375 757.3828125 C-1280.73164505 760.00811905 -1287.12743699 762.63321975 -1293.5234375 765.2578125 C-1294.32020905 765.58477112 -1295.11698059 765.91172974 -1295.93789673 766.24859619 C-1309.99806842 772.01775276 -1324.06384941 777.77314856 -1338.13079834 783.52575684 C-1351.13966308 788.84584504 -1364.14593961 794.17218177 -1377.1484375 799.5078125 C-1377.94561188 799.83493225 -1378.74278625 800.162052 -1379.56411743 800.49908447 C-1385.15485785 802.79333469 -1390.74541973 805.08801981 -1396.3359375 807.3828125 C-1402.73164505 810.00811905 -1409.12743699 812.63321975 -1415.5234375 815.2578125 C-1416.32020905 815.58477112 -1417.11698059 815.91172974 -1417.93789673 816.24859619 C-1431.99806842 822.01775276 -1446.06384941 827.77314856 -1460.13079834 833.52575684 C-1473.13966308 838.84584504 -1486.14593961 844.17218177 -1499.1484375 849.5078125 C-1499.94561188 849.83493225 -1500.74278625 850.162052 -1501.56411743 850.49908447 C-1507.15485785 852.79333469 -1512.74541973 855.08801981 -1518.3359375 857.3828125 C-1524.73164505 860.00811905 -1531.12743699 862.63321975 -1537.5234375 865.2578125 C-1538.32020905 865.58477112 -1539.11698059 865.91172974 -1539.93789673 866.24859619 C-1553.99806842 872.01775276 -1568.06384941 877.77314856 -1582.13079834 883.52575684 C-1595.13966308 888.84584504 -1608.14593961 894.17218177 -1621.1484375 899.5078125 C-1621.94561188 899.83493225 -1622.74278625 900.162052 -1623.56411743 900.49908447 C-1629.15485785 902.79333469 -1634.74541973 905.08801981 -1640.3359375 907.3828125 C-1646.73164505 910.00811905 -1653.12743699 912.63321975 -1659.5234375 915.2578125 C-1660.32020905 915.58477112 -1661.11698059 915.91172974 -1661.93789673 916.24859619 C-1675.99806842 922.01775276 -1690.06384941 927.77314856 -1704.13079834 933.52575684 C-1717.13966308 938.84584504 -1730.14593961 944.17218177 -1743.1484375 949.5078125 C-1743.94561188 949.83493225 -1744.74278625 950.162052 -1745.56411743 950.49908447 C-1751.15485785 952.79333469 -1756.74541973 955.08801981 -1762.3359375 957.3828125 C-1768.73164505 960.00811905 -1775.12743699 962.63321975 -1781.5234375 965.2578125 C-1782.32020905 965.58477112 -1783.11698059 965.91172974 -1783.93789673 966.24859619 C-1797.99806842 972.01775276 -1812.06384941 977.77314856 -1826.13079834 983.52575684 C-1843.9398213 990.80891143 -1861.74186886 998.10897613 -1879.54150391 1005.41503906 C-1888.45377178 1009.07306794 -1897.36689223 1012.7290192 -1906.27984619 1016.38537598 C-1908.72172549 1017.38711318 -1911.16359932 1018.38886373 -1913.60546875 1019.390625 C-1914.41085083 1019.72102783 -1915.21623291 1020.05143066 -1916.04602051 1020.3918457 C-1920.87089431 1022.3712935 -1925.69558027 1024.35119832 -1930.52011108 1026.33148193 C-1949.38542951 1034.07494154 -1968.25544961 1041.80677755 -1987.13079834 1049.52575684 C-2000.13966308 1054.84584504 -2013.14593961 1060.17218177 -2026.1484375 1065.5078125 C-2026.94561188 1065.83493225 -2027.74278625 1066.162052 -2028.56411743 1066.49908447 C-2034.15485785 1068.79333469 -2039.74541973 1071.08801981 -2045.3359375 1073.3828125 C-2051.73164505 1076.00811905 -2058.12743699 1078.63321975 -2064.5234375 1081.2578125 C-2065.32020905 1081.58477112 -2066.11698059 1081.91172974 -2066.93789673 1082.24859619 C-2080.99806842 1088.01775276 -2095.06384941 1093.77314856 -2109.13079834 1099.52575684 C-2122.13966308 1104.84584504 -2135.14593961 1110.17218177 -2148.1484375 1115.5078125 C-2148.94561188 1115.83493225 -2149.74278625 1116.162052 -2150.56411743 1116.49908447 C-2156.15485785 1118.79333469 -2161.74541973 1121.08801981 -2167.3359375 1123.3828125 C-2173.73164505 1126.00811905 -2180.12743699 1128.63321975 -2186.5234375 1131.2578125 C-2187.71859482 1131.74825043 -2187.71859482 1131.74825043 -2188.93789673 1132.24859619 C-2202.99806842 1138.01775276 -2217.06384941 1143.77314856 -2231.13079834 1149.52575684 C-2244.13966308 1154.84584504 -2257.14593961 1160.17218177 -2270.1484375 1165.5078125 C-2270.94561188 1165.83493225 -2271.74278625 1166.162052 -2272.56411743 1166.49908447 C-2278.15485785 1168.79333469 -2283.74541973 1171.08801981 -2289.3359375 1173.3828125 C-2295.73164505 1176.00811905 -2302.12743699 1178.63321975 -2308.5234375 1181.2578125 C-2309.32020905 1181.58477112 -2310.11698059 1181.91172974 -2310.93789673 1182.24859619 C-2325.90201985 1188.38866127 -2340.87165853 1194.51521685 -2355.84448242 1200.6340332 C-2365.11767947 1204.42444651 -2374.38671184 1208.22460342 -2383.6484375 1212.04296875 C-2386.34680015 1213.15431823 -2389.04522429 1214.26551832 -2391.74365234 1215.37670898 C-2394.2817519 1216.42297587 -2396.81861802 1217.47219397 -2399.35546875 1218.52148438 C-2400.8905648 1219.15379199 -2402.42571777 1219.78596146 -2403.9609375 1220.41796875 C-2404.65356689 1220.70559586 -2405.34619629 1220.99322296 -2406.05981445 1221.28956604 C-2409.15469929 1222.56028654 -2412.07814468 1223.56836429 -2415.3359375 1224.3828125 C-2415.3359375 1153.4328125 -2415.3359375 1082.4828125 -2415.3359375 1009.3828125 C-2400.4075356 1002.49278085 -2400.4075356 1002.49278085 -2393.171875 999.4921875 C-2392.35341095 999.15036438 -2391.5349469 998.80854126 -2390.69168091 998.45635986 C-2388.03235657 997.34628166 -2385.37165011 996.23955851 -2382.7109375 995.1328125 C-2380.8104392 994.34010184 -2378.91005084 993.54712758 -2377.00976562 992.75390625 C-2373.07171159 991.11031273 -2369.13319268 989.46784072 -2365.19433594 987.82617188 C-2356.95698604 984.39193054 -2348.72543216 980.94385912 -2340.49377441 977.4960022 C-2336.02210738 975.62312067 -2331.55012909 973.7509828 -2327.078125 971.87890625 C-2326.19068604 971.50738937 -2325.30324707 971.1358725 -2324.38891602 970.75309753 C-2319.0347465 968.51184485 -2313.67996333 966.27206537 -2308.32469177 964.03344727 C-2288.31323131 955.66813293 -2268.31655282 947.26938009 -2248.34039307 938.82009888 C-2232.68488618 932.20013836 -2217.00129363 925.64942245 -2201.30654907 919.12310791 C-2186.79688875 913.08854222 -2172.30782355 907.00738987 -2157.8359375 900.8828125 C-2141.34923011 893.90555227 -2124.83535449 886.99615151 -2108.30517578 880.12255859 C-2093.79597361 874.08817182 -2079.30744878 868.00701176 -2064.8359375 861.8828125 C-2049.31381851 855.31463482 -2033.7719272 848.79587194 -2018.2109375 842.3203125 C-2017.20856049 841.90314972 -2016.20618347 841.48598694 -2015.1734314 841.05618286 C-2011.15849095 839.38532292 -2007.14352934 837.71451386 -2003.12852478 836.04380798 C-1992.96399833 831.8133921 -1982.80464074 827.57066891 -1972.6484375 823.3203125 C-1971.7718045 822.95346344 -1970.89517151 822.58661438 -1969.99197388 822.20864868 C-1955.42709307 816.11173351 -1940.88123817 809.97028287 -1926.33901978 803.81954956 C-1910.68397365 797.19976449 -1895.00083871 790.64923329 -1879.30654907 784.12310791 C-1864.79688875 778.08854222 -1850.30782355 772.00738987 -1835.8359375 765.8828125 C-1819.34923011 758.90555227 -1802.83535449 751.99615151 -1786.30517578 745.12255859 C-1771.79597498 739.08817239 -1757.30736932 733.00719763 -1742.8359375 726.8828125 C-1726.34923011 719.90555227 -1709.83535449 712.99615151 -1693.30517578 706.12255859 C-1678.79597498 700.08817239 -1664.30736932 694.00719763 -1649.8359375 687.8828125 C-1633.34923011 680.90555227 -1616.83535449 673.99615151 -1600.30517578 667.12255859 C-1585.79597498 661.08817239 -1571.30736932 655.00719763 -1556.8359375 648.8828125 C-1540.34923011 641.90555227 -1523.83535449 634.99615151 -1507.30517578 628.12255859 C-1492.79597498 622.08817239 -1478.30736932 616.00719763 -1463.8359375 609.8828125 C-1447.34923011 602.90555227 -1430.83535449 595.99615151 -1414.30517578 589.12255859 C-1399.79597498 583.08817239 -1385.30736932 577.00719763 -1370.8359375 570.8828125 C-1354.34923011 563.90555227 -1337.83535449 556.99615151 -1321.30517578 550.12255859 C-1306.79597498 544.08817239 -1292.30736932 538.00719763 -1277.8359375 531.8828125 C-1261.35324938 524.90725325 -1244.84342962 517.99946358 -1228.31726074 511.12759399 C-1213.5539692 504.98758487 -1198.81164337 498.79990862 -1184.0859375 492.5703125 C-1169.35890047 486.34054434 -1154.61738357 480.14800154 -1139.8527832 474.0078125 C-1138.38752739 473.39844991 -1136.92227677 472.78907484 -1135.45703125 472.1796875 C-1134.72561417 471.87550903 -1133.99419708 471.57133057 -1133.24061584 471.25793457 C-1119.33942981 465.47430172 -1105.45626975 459.6473802 -1091.56906128 453.83029175 C-1085.25672367 451.186436 -1078.94311085 448.54564336 -1072.62890625 445.90625 C-1053.51647987 437.9156371 -1034.41949951 429.88995503 -1015.34039307 421.82009888 C-999.68488618 415.20013836 -984.00129363 408.64942245 -968.30654907 402.12310791 C-953.79688875 396.08854222 -939.30782355 390.00738987 -924.8359375 383.8828125 C-908.34923011 376.90555227 -891.83535449 369.99615151 -875.30517578 363.12255859 C-860.79597498 357.08817239 -846.30736932 351.00719763 -831.8359375 344.8828125 C-815.34923011 337.90555227 -798.83535449 330.99615151 -782.30517578 324.12255859 C-767.79597498 318.08817239 -753.30736932 312.00719763 -738.8359375 305.8828125 C-722.34923011 298.90555227 -705.83535449 291.99615151 -689.30517578 285.12255859 C-674.79597498 279.08817239 -660.30736932 273.00719763 -645.8359375 266.8828125 C-629.34923011 259.90555227 -612.83535449 252.99615151 -596.30517578 246.12255859 C-581.79597498 240.08817239 -567.30736932 234.00719763 -552.8359375 227.8828125 C-536.34923011 220.90555227 -519.83535449 213.99615151 -503.30517578 207.12255859 C-488.79597361 201.08817182 -474.30744878 195.00701176 -459.8359375 188.8828125 C-444.31381851 182.31463482 -428.7719272 175.79587194 -413.2109375 169.3203125 C-411.70737198 168.69456833 -411.70737198 168.69456833 -410.1734314 168.05618286 C-406.15849095 166.38532292 -402.14352934 164.71451386 -398.12852478 163.04380798 C-387.96399833 158.8133921 -377.80464074 154.57066891 -367.6484375 150.3203125 C-366.7718045 149.95346344 -365.89517151 149.58661438 -364.99197388 149.20864868 C-350.42709307 143.11173351 -335.88123817 136.97028287 -321.33901978 130.81954956 C-305.68397365 124.19976449 -290.00083871 117.64923329 -274.30654907 111.12310791 C-259.79688875 105.08854222 -245.30782355 99.00738987 -230.8359375 92.8828125 C-214.34923011 85.90555227 -197.83535449 78.99615151 -181.30517578 72.12255859 C-166.79597498 66.08817239 -152.30736932 60.00719763 -137.8359375 53.8828125 C-121.35962488 46.90995139 -104.85636892 40.00439244 -88.33639526 33.13565063 C-70.44243075 25.69430143 -52.57915614 18.18179926 -34.73910522 10.61209106 C-33.03558874 9.89258381 -31.32991804 9.17815242 -29.62197876 8.46920776 C-25.56880433 6.78336885 -21.5777286 5.03774761 -17.63232422 3.11181641 C-5.53184736 -2.65517735 -5.53184736 -2.65517735 0 0 Z " fill="#434751" transform="translate(2415.3359375,1.6171875)"/>
<path d="M0 0 C174.99290017 0 174.99290017 0 195.875 5.75 C196.8242334 6.00531494 197.7734668 6.26062988 198.75146484 6.52368164 C207.24395852 8.89977143 215.11489808 12.07904023 223 16 C224.12535156 16.54398438 225.25070313 17.08796875 226.41015625 17.6484375 C250.60773063 29.934691 269.9350392 51.00865724 278.6953125 76.83984375 C288.70045311 107.92374693 287.91856539 141.67626205 274.37109375 171.59765625 C262.05368978 195.57515494 242.6850102 211.1574949 219 223 C219.680625 223.96035156 220.36125 224.92070313 221.0625 225.91015625 C227.73213582 235.33362308 234.34655597 244.79426884 240.93359375 254.27563477 C245.27658399 260.52589408 249.631648 266.76744285 254 273 C259.68750005 281.11560634 265.35361904 289.24588844 271.00390625 297.38745117 C274.35766741 302.21668676 277.7258503 307.03460966 281.125 311.83203125 C281.77726562 312.755 282.42953125 313.67796875 283.1015625 314.62890625 C284.34243892 316.38298464 285.58707785 318.13440899 286.8359375 319.8828125 C287.38507813 320.66011719 287.93421875 321.43742187 288.5 322.23828125 C288.9846875 322.91930908 289.469375 323.60033691 289.96875 324.30200195 C291 326 291 326 291 328 C280.31698559 328.27852806 269.63483969 328.49149607 258.94892883 328.62174606 C253.98629177 328.68427573 249.02614495 328.76901092 244.06494141 328.90527344 C239.27308897 329.03605487 234.48362424 329.10748507 229.69012451 329.13852692 C227.86540117 329.16063346 226.04080308 329.20381044 224.21710205 329.26876068 C209.93507748 329.75699049 209.93507748 329.75699049 205.18818665 325.44696045 C203.12596004 322.37774158 201.56291788 319.34517608 200 316 C198.7363851 314.09639172 197.44242049 312.2122126 196.10546875 310.359375 C195.46609375 309.44285156 194.82671875 308.52632812 194.16796875 307.58203125 C193.51441406 306.64746094 192.86085937 305.71289062 192.1875 304.75 C190.77439349 302.72419971 189.36163384 300.69815742 187.94921875 298.671875 C187.27036621 297.69798828 186.59151367 296.72410156 185.89208984 295.72070312 C183.41369047 292.15692473 180.95368305 288.5808216 178.5 285 C173.40252425 277.56386594 168.25298838 270.16428487 163.09570312 262.76953125 C162.46599609 261.86589844 161.83628906 260.96226562 161.1875 260.03125 C160.4963208 259.10119141 159.8051416 258.17113281 159.09301758 257.21289062 C157.41158847 254.63180967 156.3882789 252.58522549 155.2878418 249.77148438 C153.07887777 244.77332934 150.80468991 240.83812523 146 238 C134.70433303 235.12972461 122.30934999 236.19319869 110.8125 236.5 C99.654375 236.665 88.49625 236.83 77 237 C77 267.03 77 297.06 77 328 C51.59 328 26.18 328 0 328 C0 219.76 0 111.52 0 0 Z M77 62 C77 99.62 77 137.24 77 176 C86.735 176.020625 96.47 176.04125 106.5 176.0625 C109.53896484 176.071604 112.57792969 176.08070801 115.70898438 176.09008789 C139.56224998 176.54003833 139.56224998 176.54003833 163.125 173.375 C164.24273804 173.11614014 164.24273804 173.11614014 165.38305664 172.85205078 C179.61989366 169.29550361 192.24529305 161.69153126 200.4375 149.25 C207.99085779 135.06282362 209.6815028 117.38166076 205.8125 101.75 C205.25823792 100.14851464 204.65538042 98.56283023 204 97 C203.67128906 96.16855469 203.34257812 95.33710937 203.00390625 94.48046875 C197.30200239 81.63638774 186.85817203 73.27524387 174.1875 67.75 C158.79001502 62.07339557 142.72694062 61.83863333 126.51171875 61.90234375 C125.24702759 61.90335083 123.98233643 61.90435791 122.67932129 61.90539551 C118.01537146 61.91057472 113.35143469 61.92453538 108.6875 61.9375 C93.0021875 61.9684375 93.0021875 61.9684375 77 62 Z " fill="#107CB1" transform="translate(0,1315)"/>
<path d="M0 0 C82.17 0 164.34 0 249 0 C249 20.46 249 40.92 249 62 C192.24 62 135.48 62 77 62 C77 85.1 77 108.2 77 132 C126.83 132 176.66 132 228 132 C228 151.47 228 170.94 228 191 C178.17 191 128.34 191 77 191 C77 215.75 77 240.5 77 266 C135.74 266 194.48 266 255 266 C255 286.46 255 306.92 255 328 C170.85 328 86.7 328 0 328 C0 219.76 0 111.52 0 0 Z " fill="#107CB1" transform="translate(1553,1315)"/>
<path d="M0 0 C81.84 0 163.68 0 248 0 C248 20.46 248 40.92 248 62 C191.24 62 134.48 62 76 62 C76 85.1 76 108.2 76 132 C126.16 132 176.32 132 228 132 C228 151.47 228 170.94 228 191 C177.84 191 127.68 191 76 191 C76 215.75 76 240.5 76 266 C134.74 266 193.48 266 254 266 C254 286.46 254 306.92 254 328 C170.18 328 86.36 328 0 328 C0 219.76 0 111.52 0 0 Z " fill="#107CB1" transform="translate(1240,1315)"/>
<path d="M0 0 C81.84 0 163.68 0 248 0 C248 20.46 248 40.92 248 62 C191.24 62 134.48 62 76 62 C76 85.1 76 108.2 76 132 C126.16 132 176.32 132 228 132 C228 151.47 228 170.94 228 191 C177.84 191 127.68 191 76 191 C76 215.75 76 240.5 76 266 C134.74 266 193.48 266 254 266 C254 286.46 254 306.92 254 328 C170.18 328 86.36 328 0 328 C0 219.76 0 111.52 0 0 Z " fill="#107CB1" transform="translate(344,1315)"/>
<path d="M0 0 C-2.2424182 6.98504013 -4.83453537 13.76813907 -7.59765625 20.5625 C-8.03258896 21.635 -8.46752167 22.7075 -8.91563416 23.8125 C-9.82933542 26.06198939 -10.74460761 28.31084128 -11.66137695 30.55908203 C-13.06838319 34.0144481 -14.46496894 37.4739137 -15.86132812 40.93359375 C-16.75196922 43.12265428 -17.6432233 45.31146552 -18.53515625 47.5 C-18.9528981 48.53842041 -19.37063995 49.57684082 -19.80104065 50.64672852 C-20.19162155 51.59862061 -20.58220245 52.5505127 -20.98461914 53.53125 C-21.49733116 54.79291992 -21.49733116 54.79291992 -22.020401 56.08007812 C-23 58 -23 58 -25 59 C-27.12130558 57.93779428 -29.13975977 56.81626991 -31.1875 55.625 C-46.9805951 46.86128077 -64.33945322 40.70182254 -82 37 C-82.77311523 36.83773926 -83.54623047 36.67547852 -84.34277344 36.50830078 C-110.13439775 31.35529378 -140.78583366 30.81494201 -163.7734375 45.30078125 C-167.34650852 48.02759861 -169.70843828 51.16560465 -172 55 C-172.61875 56.03125 -173.2375 57.0625 -173.875 58.125 C-176.40976021 64.72751911 -176.36476958 73.88350395 -173.5625 80.375 C-160.46207824 101.56154416 -126.77076255 105.17629175 -104.60467529 110.4052124 C-102.74279874 110.8435045 -100.8808602 111.28153336 -99.01885986 111.71929932 C-18.75337993 130.59147902 -18.75337993 130.59147902 2.3125 163.3125 C7.51897139 172.24238729 11.35230045 181.76893538 13 192 C13.11085938 192.66773438 13.22171875 193.33546875 13.3359375 194.0234375 C16.6674324 218.2443058 11.29752875 243.09366768 -3.16796875 262.98046875 C-5.37152705 265.73017575 -7.64389449 268.38027429 -10 271 C-10.92039062 272.04414062 -10.92039062 272.04414062 -11.859375 273.109375 C-38.33781275 301.39830422 -80.77963722 309.50168398 -117.71411133 310.93554688 C-164.14057388 312.24459164 -221.88117725 303.51692687 -259 273 C-258.3315651 268.00268318 -256.25171913 263.75732146 -254.17578125 259.21875 C-253.79189743 258.3688147 -253.40801361 257.51887939 -253.01249695 256.64318848 C-251.78402879 253.92655877 -250.54833285 251.21328609 -249.3125 248.5 C-248.50018429 246.70594043 -247.68833074 244.91167152 -246.87695312 243.1171875 C-242.62596657 233.72569149 -238.33900865 224.35118197 -234 215 C-230.16701621 215.84082636 -227.55623097 217.41848474 -224.25 219.5625 C-197.68174576 236.28603044 -165.45528467 246.75387228 -134 248 C-133.00009033 248.04084717 -133.00009033 248.04084717 -131.97998047 248.08251953 C-113.11349003 248.74750999 -88.88947201 248.33078129 -73.6796875 235.6015625 C-68.0607842 230.24400354 -64.59143687 225.9058132 -63.62890625 217.921875 C-63.44526179 209.15015145 -64.66444509 202.52484109 -70.87890625 196.0390625 C-87.04237044 182.40579068 -111.33954063 178.48836184 -131.3190918 173.87634277 C-181.0553178 162.35483464 -181.0553178 162.35483464 -204 151 C-205.52753906 150.26523438 -205.52753906 150.26523438 -207.0859375 149.515625 C-226.84307543 139.43891855 -242.19190382 123.37840782 -249.07421875 102.1875 C-250.24925793 98.14179548 -251.31871608 94.15900066 -252 90 C-252.11085938 89.33355469 -252.22171875 88.66710938 -252.3359375 87.98046875 C-255.65408864 63.81177327 -250.48834627 38.08101948 -235.6875 18.4375 C-234.46906723 16.94947907 -233.23952745 15.4704953 -232 14 C-231.36707031 13.20980469 -230.73414063 12.41960937 -230.08203125 11.60546875 C-216.20318596 -4.92936569 -196.32996233 -14.8380716 -176 -21 C-175.25186035 -21.22816406 -174.5037207 -21.45632813 -173.73291016 -21.69140625 C-118.14359513 -38.16231441 -49.58989216 -30.41729111 0 0 Z " fill="#107CB1" transform="translate(891,1338)"/>
<path d="M0 0 C94.38 0 188.76 0 286 0 C286 20.46 286 40.92 286 62 C251.35 62 216.7 62 181 62 C181 149.78 181 237.56 181 328 C155.92 328 130.84 328 105 328 C105 240.22 105 152.44 105 62 C70.35 62 35.7 62 0 62 C0 41.54 0 21.08 0 0 Z " fill="#107CB1" transform="translate(914,1315)"/>
<path d="M0 0 C25.41 0 50.82 0 77 0 C77 87.45 77 174.9 77 265 C131.12 265 185.24 265 241 265 C241 285.79 241 306.58 241 328 C161.47 328 81.94 328 0 328 C0 219.76 0 111.52 0 0 Z " fill="#107CB1" transform="translate(1867,1315)"/>
<path d="M0 0 C14.52 0 29.04 0 44 0 C56.91952055 15.07277397 56.91952055 15.07277397 62.73046875 22.234375 C65.24099795 25.29367736 67.80512442 28.30312932 70.375 31.3125 C74.1579797 35.74846663 77.80532976 40.26600953 81.375 44.875 C85.82926201 50.61865365 90.50929095 56.1273402 95.29541016 61.59619141 C99.99015951 66.9642242 104.51512368 72.45551004 109 78 C111.35013262 80.86445877 113.70224409 83.72728268 116.0546875 86.58984375 C117.74965977 88.68983951 119.38078761 90.84105015 121 93 C121.33 62.31 121.66 31.62 122 0 C139.16 0 156.32 0 174 0 C174 60.06 174 120.12 174 182 C159.48 182 144.96 182 130 182 C116.91071429 166.72916667 116.91071429 166.72916667 111.46875 160.03515625 C108.36670641 156.22140962 105.24801942 152.42157897 102.125 148.625 C101.52276611 147.89265137 100.92053223 147.16030273 100.30004883 146.40576172 C96.67596479 142.00763467 93.01327598 137.64616231 89.3125 133.3125 C85.6331625 129.00211333 82.09616001 124.60441961 78.625 120.125 C74.19518921 114.41115134 69.55407538 108.9173712 64.76611328 103.50048828 C60.32031807 98.4522587 56.22141686 93.27677108 52 88 C51.67 119.02 51.34 150.04 51 182 C34.17 182 17.34 182 0 182 C0 121.94 0 61.88 0 0 Z " fill="#107CB1" transform="translate(2680,1726)"/>
<path d="M0 0 C14.16474929 11.95357428 23.81922421 27.03656191 29.45483398 44.66918945 C29.77452148 45.65145508 30.09420898 46.6337207 30.42358398 47.64575195 C36.53806197 70.46181332 33.33482119 96.81378673 22.45483398 117.66918945 C8.87599108 141.03743073 -11.93503883 156.42030396 -37.79516602 163.91918945 C-67.47798872 171.34763309 -99.06752673 167.97224557 -125.79907227 152.82543945 C-143.77287981 141.38969228 -157.62615089 125.23373574 -164.85766602 105.10668945 C-165.1001709 104.43500732 -165.34267578 103.7633252 -165.5925293 103.07128906 C-168.96799008 93.14886565 -169.91095759 83.35738658 -169.85766602 72.91918945 C-169.85275146 71.77683838 -169.84783691 70.6344873 -169.84277344 69.45751953 C-169.53343794 47.10128778 -162.00574086 27.69310319 -147.54516602 10.66918945 C-146.38114258 9.20545898 -146.38114258 9.20545898 -145.19360352 7.7121582 C-130.50438457 -9.86408837 -105.30546672 -19.58962097 -83.14379883 -22.10375977 C-53.40139836 -24.70244752 -23.62638422 -19.201688 0 0 Z M-103.45141602 35.4777832 C-114.86051199 47.51237786 -117.15427372 61.58239196 -116.86157227 77.4465332 C-116.28785734 90.79080641 -110.38750687 103.58537487 -100.54516602 112.66918945 C-88.445079 121.81758857 -76.543388 124.5244207 -61.54516602 123.66918945 C-49.83791451 121.99874728 -39.55839236 116.39048106 -31.54516602 107.66918945 C-21.02377764 93.2266355 -18.38942179 77.02579995 -20.84545898 59.5300293 C-23.42685482 47.07684966 -30.69149671 36.34700612 -40.92797852 28.9465332 C-61.39755409 15.88835568 -86.10409501 19.01915692 -103.45141602 35.4777832 Z " fill="#107CB1" transform="translate(548.545166015625,1744.330810546875)"/>
<path d="M0 0 C1.66580696 1.45663604 3.3133508 2.93455597 4.9375 4.4375 C5.66324219 5.09492187 6.38898437 5.75234375 7.13671875 6.4296875 C24.15233134 22.57021144 32.96380039 46.08522026 34.125 69.1640625 C34.52357773 93.22819283 27.92212964 116.13353194 11.9375 134.4375 C11.16148437 135.41074219 10.38546875 136.38398437 9.5859375 137.38671875 C-6.33598248 156.47489531 -32.63524692 165.56515624 -56.5625 168.0625 C-78.33245082 169.74653276 -99.56784927 166.56395596 -119.0625 156.4375 C-120.05894531 155.92445313 -121.05539063 155.41140625 -122.08203125 154.8828125 C-143.34887302 143.23203942 -157.89399896 124.6844537 -165.4375 101.75 C-172.82370592 75.0812211 -169.55706485 47.69150175 -156.01171875 23.5390625 C-152.80489352 18.43641874 -149.08736895 13.91191801 -145.0625 9.4375 C-144.12470703 8.37595703 -144.12470703 8.37595703 -143.16796875 7.29296875 C-107.8083171 -30.4488068 -39.38486249 -31.54057452 0 0 Z M-102.32421875 35.4375 C-113.90918558 48.76672027 -117.2393641 64.17682646 -116.0625 81.4375 C-114.02413799 95.24058134 -107.66124628 106.41995925 -96.83203125 115.2578125 C-85.47458269 123.25828069 -73.7224493 125.38740833 -60.0625 124.4375 C-48.03769529 122.1019386 -36.53704945 116.36370166 -29.0625 106.4375 C-24.16160831 98.50104703 -19.73089083 89.8530926 -19.0625 80.4375 C-18.94261719 78.87515625 -18.94261719 78.87515625 -18.8203125 77.28125 C-18.31314619 64.03525935 -21.10428016 51.22219086 -29.0625 40.4375 C-29.50207031 39.80585937 -29.94164063 39.17421875 -30.39453125 38.5234375 C-37.39188281 29.36840116 -49.04663487 23.78503728 -60.22265625 21.90625 C-75.70241628 20.28262797 -90.90529189 24.48315475 -102.32421875 35.4375 Z " fill="#107CB1" transform="translate(2413.0625,1743.5625)"/>
<path d="M0 0 C17.16 0 34.32 0 52 0 C52.02578125 7.6828125 52.0515625 15.365625 52.078125 23.28125 C52.10331929 28.17581367 52.12967225 33.07031712 52.16015625 37.96484375 C52.20833289 45.71761224 52.25243701 53.47024118 52.27099609 61.22314453 C52.28624471 67.48031545 52.32083499 73.73711894 52.36830902 79.99412537 C52.38303857 82.37003875 52.39103612 84.74600461 52.39188385 87.1219635 C51.77473786 110.71585052 51.77473786 110.71585052 61.4453125 131.4609375 C61.95835938 131.96882813 62.47140625 132.47671875 63 133 C63.9075 133.928125 64.815 134.85625 65.75 135.8125 C74.01801139 141.37750767 83.24742385 141.97745414 93 141 C100.03392122 139.42802518 106.36578367 136.66269776 111 131 C118.32358445 119.36038311 119.12320885 106.84411624 119.20532227 93.43139648 C119.21522186 92.41571091 119.22512146 91.40002533 119.23532104 90.3535614 C119.26668406 87.02609517 119.29159292 83.69861471 119.31640625 80.37109375 C119.33699758 78.0522476 119.3579946 75.73340501 119.37937927 73.41456604 C119.43437493 67.33359685 119.48388281 61.25259505 119.53222656 55.17156982 C119.59147613 47.86344617 119.6575794 40.55538164 119.72252655 33.24730682 C119.82025259 22.16490756 119.90930245 11.08246905 120 0 C136.83 0 153.66 0 171 0 C171.12032643 27.76866566 171.12032643 27.76866566 171.14648438 39.69335938 C171.16435076 47.79945899 171.18492432 55.90545688 171.22631836 64.01147461 C171.25971079 70.55375826 171.2769019 77.09597324 171.28463173 83.63833809 C171.2901336 86.12232762 171.30087616 88.60631178 171.31719017 91.09025383 C171.48924967 118.39771952 168.61203503 143.62687363 148.86328125 164.39453125 C133.16898462 178.67569885 111.95037937 185.31163039 91 186 C90.15953125 186.03996094 89.3190625 186.07992188 88.453125 186.12109375 C63.66463789 186.75958508 39.02387889 180.13674372 20.7421875 162.8671875 C5.51006927 147.22199487 -0.1859593 125.90297505 -0.11352539 104.55688477 C-0.11374443 102.85823021 -0.11374443 102.85823021 -0.1139679 101.1252594 C-0.11327349 97.39728859 -0.10550316 93.66936829 -0.09765625 89.94140625 C-0.0957904 87.35066251 -0.09436728 84.75991841 -0.09336853 82.16917419 C-0.08994577 76.05660186 -0.08207125 69.94405024 -0.07201904 63.83148569 C-0.05971911 56.18518663 -0.05426546 48.53888461 -0.04882812 40.89257812 C-0.03910505 27.26170474 -0.01907008 13.63087062 0 0 Z " fill="#107CB1" transform="translate(1177,1726)"/>
<path d="M0 0 C1.42943641 4.28830923 -0.40355515 7.15738846 -2.078125 11.1328125 C-2.4053656 11.9252536 -2.7326062 12.7176947 -3.06976318 13.53414917 C-3.76455644 15.20883566 -4.46425568 16.88149388 -5.16845703 18.55224609 C-6.24620173 21.11596475 -7.30169503 23.68806962 -8.35546875 26.26171875 C-9.03252869 27.88596982 -9.71087126 29.50968695 -10.390625 31.1328125 C-10.70638489 31.90569611 -11.02214478 32.67857971 -11.34747314 33.47488403 C-12.14911031 35.35398565 -13.06568463 37.18321718 -14 39 C-17.60502636 40.20167545 -18.6601129 39.43224457 -21.93652344 37.80151367 C-22.5762207 37.47513916 -23.21591797 37.14876465 -23.875 36.8125 C-30.74809196 33.46165965 -37.57607619 30.90873493 -45 29 C-46.28003906 28.66162109 -46.28003906 28.66162109 -47.5859375 28.31640625 C-53.57590131 26.98018355 -59.51279139 26.79966391 -65.625 26.75 C-66.41277832 26.7406543 -67.20055664 26.73130859 -68.01220703 26.72167969 C-76.18261263 26.76601919 -83.48830454 27.72862749 -90 33 C-92.63703013 35.81889428 -93.71713306 38.13415188 -94 42 C-92.8957425 46.52745575 -90.86836867 48.50167857 -87 51 C-77.31193479 55.82526982 -66.45274193 57.59964729 -55.96850586 59.921875 C-34.62546875 64.67656452 -10.11483021 70.24332674 2.4375 89.9375 C7.10915032 97.84444249 8.54312094 106.31758531 8.4375 115.375 C8.42614014 116.7513562 8.42614014 116.7513562 8.41455078 118.15551758 C8.10359971 130.99643508 3.27396757 142.79993054 -5.36328125 152.4453125 C-22.17072243 168.41037596 -44.25763983 174.30534624 -67 175 C-67.89847656 175.03996094 -68.79695313 175.07992188 -69.72265625 175.12109375 C-96.7321589 175.76689058 -126.42665032 170.5191779 -149 155 C-148.42007323 149.95566658 -146.75090356 145.75154803 -144.62109375 141.1953125 C-144.28956802 140.4713327 -143.9580423 139.74735291 -143.61647034 139.00143433 C-142.56353595 136.70612696 -141.50070221 134.41556651 -140.4375 132.125 C-139.71874071 130.56280365 -139.00063473 129.00030653 -138.28320312 127.4375 C-136.52967701 123.6214778 -134.76726244 119.80967892 -133 116 C-128.65742109 117.39607097 -124.88114377 119.06483067 -120.875 121.25 C-101.18873692 131.45480377 -76.75520495 136.36305192 -55 131 C-50.8451518 129.550479 -47.87917645 127.98574329 -44.9375 124.6875 C-43.64295134 120.97646052 -43.92289028 118.76988402 -45 115 C-52.10056384 105.45861734 -66.07229232 104.1088489 -76.9375 101.625 C-86.6645736 99.40007966 -96.27682862 97.06331175 -105.75390625 93.91796875 C-106.48004623 93.67756866 -107.20618622 93.43716858 -107.95433044 93.18948364 C-121.97240877 88.39735352 -134.07363062 80.83358639 -141.74609375 67.84765625 C-145.11877031 60.18821322 -146.53609022 53.03894521 -146.4375 44.6875 C-146.42920166 43.77178223 -146.42090332 42.85606445 -146.41235352 41.91259766 C-146.05976982 27.68628455 -140.98373061 16.14195419 -131.25 5.75 C-100.62670642 -23.04767415 -34.07330415 -23.52837444 0 0 Z " fill="#107CB1" transform="translate(3233,1737)"/>
<path d="M0 0 C-10.70050315 26.9576474 -10.70050315 26.9576474 -16 39 C-20.29937077 37.64230397 -24.3352455 35.9901004 -28.4375 34.125 C-45.03913607 26.79560202 -67.54509204 21.45904909 -85.15625 28.15625 C-85.7646875 28.4346875 -86.373125 28.713125 -87 29 C-87.969375 29.433125 -88.93875 29.86625 -89.9375 30.3125 C-92.75367513 32.61664328 -93.810399 34.56337488 -95 38 C-94.75485176 41.61593648 -94.14329929 44.57010213 -93 48 C-90.66665917 49.1343922 -90.66665917 49.1343922 -88 50 C-87.330896 50.30317139 -86.66179199 50.60634277 -85.97241211 50.91870117 C-78.28467954 54.29567082 -70.24761835 55.93447953 -62.08828735 57.74761963 C-24.33707729 66.19049884 -24.33707729 66.19049884 -10 77 C-9.33871094 77.48082031 -8.67742187 77.96164062 -7.99609375 78.45703125 C0.55574696 85.16182213 5.04270098 94.43943183 7 105 C7.96218021 114.85512528 7.67107723 124.71083696 4 134 C3.50693359 135.25490234 3.50693359 135.25490234 3.00390625 136.53515625 C-3.51759928 151.13520497 -16.62560203 160.90016322 -31 167 C-66.0271872 179.76378984 -107.2239835 175.03978462 -140.81933594 160.08203125 C-144.37853122 158.31598182 -147.69741499 156.20247555 -151 154 C-149.5293582 149.36987053 -147.76619817 144.90812504 -145.84765625 140.44921875 C-145.54685654 139.74980667 -145.24605682 139.05039459 -144.93614197 138.32978821 C-144.30313963 136.86266033 -143.66855747 135.39621316 -143.0324707 133.93041992 C-142.38284102 132.42824325 -141.73802151 130.92397772 -141.09790039 129.41772461 C-140.1706976 127.23608492 -139.22965801 125.06091524 -138.28515625 122.88671875 C-137.85844383 121.87275276 -137.85844383 121.87275276 -137.42311096 120.83830261 C-136.69608085 119.18759624 -135.85614388 117.58758369 -135 116 C-132 115 -132 115 -128.69921875 116.4765625 C-127.35845594 117.18609026 -126.02142798 117.90270456 -124.6875 118.625 C-103.79778297 129.4669475 -79.35857426 135.69324582 -56 130 C-51.11006065 128.43553387 -48.65027257 127.03278585 -45.875 122.625 C-44.86714284 118.44959176 -45.06103536 116.79362647 -47 113 C-55.25521539 103.43355353 -72.23132607 101.78239797 -84 99 C-129.27228983 88.29654027 -129.27228983 88.29654027 -141.4375 69 C-148.32498772 56.29511445 -149.80159251 42.02072483 -146 28 C-143.48676138 20.43193935 -140.27279232 13.99009342 -135 8 C-134.44957031 7.34515625 -133.89914063 6.6903125 -133.33203125 6.015625 C-102.62414143 -27.76960132 -35.7100296 -21.45726267 0 0 Z " fill="#107CB1" transform="translate(151,1738)"/>
<path d="M0 0 C54.12 0 108.24 0 164 0 C164 13.53 164 27.06 164 41 C145.52 41 127.04 41 108 41 C108 87.53 108 134.06 108 182 C90.84 182 73.68 182 56 182 C56 135.47 56 88.94 56 41 C37.52 41 19.04 41 0 41 C0 27.47 0 13.94 0 0 Z " fill="#107CB1" transform="translate(1569,1726)"/>
<path d="M0 0 C17.16 0 34.32 0 52 0 C52 46.2 52 92.4 52 140 C80.38 140 108.76 140 138 140 C138 153.86 138 167.72 138 182 C92.46 182 46.92 182 0 182 C0 121.94 0 61.88 0 0 Z " fill="#107CB1" transform="translate(815,1726)"/>
<path d="M0 0 C17.49 0 34.98 0 53 0 C53 60.06 53 120.12 53 182 C35.51 182 18.02 182 0 182 C0 121.94 0 61.88 0 0 Z " fill="#107CB1" transform="translate(1958,1726)"/>
</svg>
